PathFileType	3	(X/Y/Z)	feet_movements_1__view1_aligned.trc
DataRate	CameraRate	NumFrames	NumMarkers	Units	OrigDataRate	OrigDataStartFrame	OrigNumFrames
100.0	100.0	18	19	mm	100.0	861	1840
Frame#	Time	pelvis			neck			head			hip_left			hip_right			knee_left			knee_right			ankle_left			ankle_right			heel_left			heel_right			toe_left			toe_right			shoulder_left			shoulder_right			elbow_left			elbow_right			wrist_left			wrist_right			
		X1	Y1	Z1	X2	Y2	Z2	X3	Y3	Z3	X4	Y4	Z4	X5	Y5	Z5	X6	Y6	Z6	X7	Y7	Z7	X8	Y8	Z8	X9	Y9	Z9	X10	Y10	Z10	X11	Y11	Z11	X12	Y12	Z12	X13	Y13	Z13	X14	Y14	Z14	X15	Y15	Z15	X16	Y16	Z16	X17	Y17	Z17	X18	Y18	Z18	X19	Y19	Z19	
861	8.60000	57.183351	956.739414	446.052359	81.650359	1403.322778	729.610463	104.076785	1560.331489	664.625616	-19.197817	993.195963	416.008757	133.564518	920.282866	476.095961	55.522776	1260.152997	75.036252	253.935575	548.819731	272.485932	77.597457	1056.637869	-263.986727	147.312876	166.206412	374.635595	78.468054	1003.136856	-286.563636	122.538644	126.884461	413.552915	110.578929	1187.240063	-411.939869	200.608776	70.011525	209.485428	-102.758794	1375.557659	684.978173	253.435499	1337.370865	797.947484	-256.577164	1190.710222	517.808331	373.320243	1121.456547	652.185590	-309.573543	1089.829249	280.824848	445.776672	1106.662601	403.857826
862	8.61000	57.277882	957.213611	445.250453	82.269979	1403.745386	728.722079	104.746184	1560.595312	663.365728	-19.163461	993.848560	415.191233	133.719224	920.578663	475.309674	56.842590	1262.857933	76.101025	253.827350	548.978276	271.886489	81.991545	1053.841068	-259.270017	147.570345	166.317490	374.374911	83.157346	1000.013546	-281.044428	122.859110	127.037244	413.370420	115.471348	1182.408007	-408.737505	200.730151	69.831480	209.304512	-102.174254	1376.187537	683.975244	253.924133	1337.275683	797.277457	-255.967324	1190.785775	517.488620	372.056691	1120.127148	652.327481	-308.244225	1089.897315	280.636149	445.002986	1106.392031	404.391442
863	8.62000	57.372412	957.687808	444.448547	82.889599	1404.167995	727.833695	105.415583	1560.859135	662.105841	-19.129105	994.501157	414.373708	133.873930	920.874460	474.523387	58.162404	1265.562870	77.165798	253.719126	549.136822	271.287046	86.385634	1051.044267	-254.553307	147.827814	166.428568	374.114228	87.846637	996.890236	-275.525220	123.179575	127.190028	413.187925	120.363767	1177.575951	-405.535142	200.851527	69.651435	209.123597	-101.589714	1376.817415	682.972316	254.412768	1337.180501	796.607429	-255.357484	1190.861328	517.168909	370.793140	1118.797750	652.469371	-306.914907	1089.965381	280.447450	444.229300	1106.121461	404.925057
864	8.63000	57.466943	958.162005	443.646641	83.509219	1404.590603	726.945312	106.084983	1561.122958	660.845954	-19.094749	995.153753	413.556183	134.028635	921.170257	473.737099	59.482219	1268.267806	78.230571	253.610902	549.295367	270.687602	90.779722	1048.247466	-249.836597	148.085282	166.539646	373.853545	92.535929	993.766926	-270.006012	123.500040	127.342812	413.005429	125.256187	1172.743895	-402.332778	200.972903	69.471390	208.942681	-101.005174	1377.447293	681.969388	254.901402	1337.085319	795.937401	-254.747644	1190.936881	516.849198	369.529588	1117.468351	652.611261	-305.585589	1090.033447	280.258751	443.455614	1105.850891	405.458673
865	8.64000	57.561474	958.636202	442.844735	84.128839	1405.013211	726.056928	106.754382	1561.386781	659.586066	-19.060393	995.806350	412.738659	134.183341	921.466053	472.950812	60.802033	1270.972743	79.295344	253.502678	549.453913	270.088159	95.173811	1045.450665	-245.119887	148.342751	166.650725	373.592861	97.225220	990.643616	-264.486804	123.820506	127.495596	412.822934	130.148606	1167.911839	-399.130415	201.094278	69.291345	208.761766	-100.420634	1378.077171	680.966459	255.390037	1336.990137	795.267373	-254.137804	1191.012433	516.529487	368.266037	1116.138953	652.753151	-304.256271	1090.101513	280.070052	442.681928	1105.580321	405.992288
866	8.65000	57.656005	959.110399	442.042829	84.748459	1405.435820	725.168544	107.423782	1561.650604	658.326179	-19.026037	996.458947	411.921134	134.338046	921.761850	472.164525	62.121847	1273.677679	80.360117	253.394454	549.612458	269.488716	99.567899	1042.653864	-240.403177	148.600220	166.761803	373.332178	101.914512	987.520306	-258.967596	124.140971	127.648379	412.640439	135.041026	1163.079783	-395.928051	201.215654	69.111300	208.580850	-99.836094	1378.707049	679.963531	255.878671	1336.894956	794.597346	-253.527964	1191.087986	516.209776	367.002485	1114.809554	652.895041	-302.926953	1090.169579	279.881353	441.908243	1105.309751	406.525904
867	8.66000	57.750535	959.584595	441.240924	85.368079	1405.858428	724.280160	108.093181	1561.914427	657.066291	-18.991681	997.111544	411.103610	134.492752	922.057647	471.378237	63.441661	1276.382615	81.424890	253.286230	549.771004	268.889273	103.961988	1039.857063	-235.686467	148.857689	166.872881	373.071494	106.603803	984.396996	-253.448388	124.461437	127.801163	412.457944	139.933445	1158.247727	-392.725687	201.337030	68.931255	208.399934	-99.251554	1379.336927	678.960603	256.367306	1336.799774	793.927318	-252.918124	1191.163539	515.890065	365.738933	1113.480156	653.036931	-301.597635	1090.237645	279.692654	441.134557	1105.039181	407.059520
868	8.67000	57.845066	960.058792	440.439018	85.987699	1406.281036	723.391777	108.762580	1562.178250	655.806404	-18.957325	997.764141	410.286085	134.647457	922.353444	470.591950	64.761476	1279.087552	82.489663	253.178006	549.929549	268.289830	108.356076	1037.060262	-230.969757	149.115158	166.983959	372.810811	111.293095	981.273686	-247.929180	124.781902	127.953947	412.275448	144.825865	1153.415671	-389.523324	201.458405	68.751211	208.219019	-98.667014	1379.966805	677.957674	256.855940	1336.704592	793.257290	-252.308284	1191.239091	515.570354	364.475382	1112.150757	653.178821	-300.268317	1090.305711	279.503955	440.360871	1104.768611	407.593135
869	8.68000	57.939597	960.532989	439.637112	86.607319	1406.703644	722.503393	109.431980	1562.442073	654.546517	-18.922969	998.416738	409.468561	134.802163	922.649240	469.805663	66.081290	1281.792488	83.554435	253.069782	550.088095	267.690387	112.750165	1034.263461	-226.253047	149.372626	167.095037	372.550128	115.982386	978.150377	-242.409972	125.102367	128.106731	412.092953	149.718284	1148.583615	-386.320960	201.579781	68.571166	208.038103	-98.082475	1380.596683	676.954746	257.344575	1336.609410	792.587263	-251.698443	1191.314644	515.250643	363.211830	1110.821359	653.320711	-298.938999	1090.373777	279.315256	439.587185	1104.498041	408.126751
870	8.69000	58.034128	961.007186	438.835206	87.226939	1407.126253	721.615009	110.101379	1562.705896	653.286629	-18.888613	999.069335	408.651036	134.956868	922.945037	469.019375	67.401104	1284.497425	84.619208	252.961557	550.246640	267.090944	117.144253	1031.466660	-221.536337	149.630095	167.206116	372.289444	120.671678	975.027067	-236.890764	125.422833	128.259514	411.910458	154.610704	1143.751559	-383.118596	201.701157	68.391121	207.857188	-97.497935	1381.226562	675.951818	257.833209	1336.514228	791.917235	-251.088603	1191.390197	514.930932	361.948279	1109.491960	653.462601	-297.609681	1090.441843	279.126557	438.813499	1104.227471	408.660366
871	8.70000	58.128659	961.481383	438.033300	87.846559	1407.548861	720.726626	110.770779	1562.969719	652.026742	-18.854257	999.721932	407.833511	135.111574	923.240834	468.233088	68.720918	1287.202361	85.683981	252.853333	550.405185	266.491501	121.538341	1028.669859	-216.819627	149.887564	167.317194	372.028761	125.360969	971.903757	-231.371556	125.743298	128.412298	411.727963	159.503123	1138.919503	-379.916233	201.822532	68.211076	207.676272	-96.913395	1381.856440	674.948889	258.321844	1336.419046	791.247207	-250.478763	1191.465750	514.611221	360.684727	1108.162562	653.604491	-296.280363	1090.509909	278.937857	438.039813	1103.956901	409.193982
872	8.71000	58.301903	962.127611	437.664153	88.044461	1408.129548	720.280202	110.988246	1563.395420	651.305987	-18.680052	1000.477933	407.423001	135.283820	923.777289	467.905337	70.093613	1289.323769	86.850643	252.546364	550.676503	266.401673	125.342821	1026.851110	-212.111533	149.765761	167.475015	372.183715	129.253370	969.898897	-225.876005	125.642095	128.627626	411.952743	164.300708	1134.728940	-376.483486	201.598578	67.977306	207.970948	-96.713642	1382.413147	674.152605	258.390072	1336.677936	791.069952	-249.789778	1191.490672	513.903256	359.135585	1107.144397	654.398015	-294.854395	1090.268960	278.382041	437.379830	1104.802146	410.473900
873	8.72000	58.475147	962.773838	437.295006	88.242364	1408.710235	719.833778	111.205713	1563.821122	650.585233	-18.505848	1001.233935	407.012490	135.456066	924.313745	467.577586	71.466307	1291.445178	88.017304	252.239394	550.947820	266.311844	129.147300	1025.032362	-207.403438	149.643958	167.632836	372.338669	133.145770	967.894038	-220.380454	125.540891	128.842954	412.177523	169.098292	1130.538378	-373.050740	201.374624	67.743535	208.265624	-96.513890	1382.969853	673.356321	258.458300	1336.936825	790.892696	-249.100793	1191.515595	513.195290	357.586444	1106.126232	655.191538	-293.428428	1090.028011	277.826224	436.719846	1105.647391	411.753817
874	8.73000	58.648391	963.420066	436.925859	88.440266	1409.290923	719.387354	111.423179	1564.246823	649.864479	-18.331644	1001.989937	406.601979	135.628312	924.850200	467.249835	72.839001	1293.566586	89.183965	251.932424	551.219137	266.222016	132.951779	1023.213613	-202.695343	149.522155	167.790657	372.493623	137.038171	965.889178	-214.884903	125.439688	129.058282	412.402303	173.895876	1126.347816	-369.617993	201.150669	67.509765	208.560299	-96.314137	1383.526560	672.560037	258.526528	1337.195714	790.715441	-248.411808	1191.540518	512.487325	356.037302	1105.108067	655.985062	-292.002460	1089.787062	277.270408	436.059863	1106.492636	413.033735
875	8.74000	58.821635	964.066294	436.556712	88.638169	1409.871610	718.940930	111.640646	1564.672525	649.143724	-18.157439	1002.745939	406.191469	135.800558	925.386655	466.922085	74.211695	1295.687994	90.350627	251.625454	551.490455	266.132188	136.756259	1021.394865	-197.987249	149.400352	167.948479	372.648577	140.930572	963.884319	-209.389351	125.338485	129.273610	412.627083	178.693460	1122.157254	-366.185247	200.926715	67.275995	208.854975	-96.114385	1384.083267	671.763753	258.594756	1337.454603	790.538186	-247.722822	1191.565441	511.779360	354.488160	1104.089902	656.778586	-290.576493	1089.546113	276.714591	435.399879	1107.337881	414.313653
876	8.75000	58.994879	964.712522	436.187566	88.836071	1410.452297	718.494506	111.858113	1565.098226	648.422970	-17.983235	1003.501940	405.780958	135.972804	925.923111	466.594334	75.584389	1297.809402	91.517288	251.318485	551.761772	266.042360	140.560738	1019.576116	-193.279154	149.278549	168.106300	372.803531	144.822972	961.879459	-203.893800	125.237282	129.488937	412.851863	183.491044	1117.966692	-362.752501	200.702761	67.042225	209.149651	-95.914632	1384.639974	670.967469	258.662984	1337.713492	790.360930	-247.033837	1191.590364	511.071395	352.939018	1103.071737	657.572110	-289.150525	1089.305164	276.158775	434.739896	1108.183126	415.593571
877	8.76000	59.168124	965.358749	435.818419	89.033974	1411.032984	718.048081	112.075580	1565.523927	647.702215	-17.809031	1004.257942	405.370447	136.145050	926.459566	466.266583	76.957084	1299.930810	92.683949	251.011515	552.033089	265.952532	144.365217	1017.757368	-188.571060	149.156746	168.264121	372.958485	148.715373	959.874600	-198.398249	125.136078	129.704265	413.076643	188.288629	1113.776130	-359.319754	200.478806	66.808455	209.444326	-95.714880	1385.196681	670.171185	258.731213	1337.972381	790.183675	-246.344852	1191.615287	510.363430	351.389876	1102.053572	658.365633	-287.724558	1089.064214	275.602958	434.079912	1109.028371	416.873488
878	8.77000	59.341368	966.004977	435.449272	89.231876	1411.613671	717.601657	112.293047	1565.949629	646.981461	-17.634826	1005.013944	404.959937	136.317296	926.996022	465.938832	78.329778	1302.052219	93.850611	250.704545	552.304406	265.862703	148.169697	1015.938619	-183.862965	149.034943	168.421942	373.113439	152.607774	957.869740	-192.902698	125.034875	129.919593	413.301423	193.086213	1109.585567	-355.887008	200.254852	66.574684	209.739002	-95.515127	1385.753388	669.374901	258.799441	1338.231271	790.006419	-245.655867	1191.640210	509.655465	349.840735	1101.035407	659.159157	-286.298590	1088.823265	275.047142	433.419929	1109.873616	418.153406
